HIERARCHY
ROOT Hips
{
	OFFSET -3.958830 18.904000 13.208200
	CHANNELS 6 Xposition Yposition Zposition Zrotation Yrotation Xrotation 
	JOINT LHipJoint
	{
		OFFSET 0.000000 0.000000 0.000000
		CHANNELS 3 Zrotation Yrotation Xrotation
		JOINT LeftUpLeg
		{
			OFFSET 1.800000 -1.400000 0.085000
			CHANNELS 3 Zrotation Yrotation Xrotation
			JOINT LeftLeg
			{
				OFFSET 2.215000 -6.000000 0.000000
				CHANNELS 3 Zrotation Yrotation Xrotation
				JOINT LeftFoot
				{
					OFFSET 2.500000 -6.900000 0.000000
					CHANNELS 3 Zrotation Yrotation Xrotation
					JOINT LeftToeBase
					{
						OFFSET 0.200000 -0.500000 1.950000
						CHANNELS 3 Zrotation Yrotation Xrotation
						End Site
						{
							OFFSET 0.000000 0.000000 0.000000
						}
					}
				}
			}
		}
	}
	JOINT RHipJoint
	{
		OFFSET 0.000000 0.000000 0.000000
		CHANNELS 3 Zrotation Yrotation Xrotation
		JOINT RightUpLeg
		{
			OFFSET -1.800000 -1.400000 0.085000
			CHANNELS 3 Zrotation Yrotation Xrotation
			JOINT RightLeg
			{
				OFFSET -2.215000 -6.000000 0.000000
				CHANNELS 3 Zrotation Yrotation Xrotation
				JOINT RightFoot
				{
					OFFSET -2.500000 -6.900000 0.000000
					CHANNELS 3 Zrotation Yrotation Xrotation
					JOINT RightToeBase
					{
						OFFSET -0.200000 -0.500000 1.950000
						CHANNELS 3 Zrotation Yrotation Xrotation
						End Site
						{
							OFFSET 0.000000 0.000000 0.000000
						}
					}
				}
			}
		}
	}
	JOINT LowerBack
	{
		OFFSET 0.000000 0.000000 0.000000
		CHANNELS 3 Zrotation Yrotation Xrotation
		JOINT Spine
		{
			OFFSET -0.087000 1.940000 -0.288900
			CHANNELS 3 Zrotation Yrotation Xrotation
			JOINT Spine1
			{
				OFFSET 0.000000 1.950000 0.060000
				CHANNELS 3 Zrotation Yrotation Xrotation
				JOINT Neck
				{
					OFFSET 0.000000 0.000000 0.000000
					CHANNELS 3 Zrotation Yrotation Xrotation
					JOINT Neck1
					{
						OFFSET 0.000000 1.600000 0.340000
						CHANNELS 3 Zrotation Yrotation Xrotation
						JOINT Head
						{
							OFFSET 0.000000 1.667000 -0.240000
							CHANNELS 3 Zrotation Yrotation Xrotation
							End Site
							{
								OFFSET 0.000000 0.000000 0.000000
							}
						}
					}
				}
				JOINT LeftShoulder
				{
					OFFSET 0.000000 0.000000 0.000000
					CHANNELS 3 Zrotation Yrotation Xrotation
					JOINT LeftArm
					{
						OFFSET 2.700000 1.550000 -0.730000
						CHANNELS 3 Zrotation Yrotation Xrotation
						JOINT LeftForeArm
						{
							OFFSET 5.450000 0.000000 0.000000
							CHANNELS 3 Zrotation Yrotation Xrotation
							JOINT LeftHand
							{
								OFFSET 3.450000 0.000000 0.000000
								CHANNELS 3 Zrotation Yrotation Xrotation
								JOINT LeftHandIndex1
								{
									OFFSET 0.750000 0.000000 0.000000
									CHANNELS 3 Zrotation Yrotation Xrotation
									End Site
									{
										OFFSET 0.000000 0.000000 0.000000
									}
								}
							}
						}
					}
				}
				JOINT RightShoulder
				{
					OFFSET 0.000000 0.000000 0.000000
					CHANNELS 3 Zrotation Yrotation Xrotation
					JOINT RightArm
					{
						OFFSET -2.700000 1.550000 -0.730000
						CHANNELS 3 Zrotation Yrotation Xrotation
						JOINT RightForeArm
						{
							OFFSET -5.450000 0.000000 0.000000
							CHANNELS 3 Zrotation Yrotation Xrotation
							JOINT RightHand
							{
								OFFSET -3.450000 0.000000 0.000000
								CHANNELS 3 Zrotation Yrotation Xrotation
								JOINT RightHandIndex1
								{
									OFFSET -0.750000 0.000000 0.000000
									CHANNELS 3 Zrotation Yrotation Xrotation
									End Site
									{
										OFFSET 0.000000 0.000000 0.000000
									}
								}
							}
						}
					}
				}
			}
		}
	}
}
MOTION
Frames: 9
Frame Time: 0.016667
-0.804160 17.187620 -4.643310 -2.032872 26.099014 -6.302307 -15.181660 12.425307 2.364211 -1.120142 2.367216 11.905007 3.357870 5.076962 18.286317 -0.220098 5.503806 2.940151 0.730570 0.071820 0.658370 18.614269 -8.786488 5.447595 -9.291949 12.599184 -49.001956 20.326075 -22.200431 59.352866 -2.079490 -11.175984 0.960574 0.025170 0.002670 0.168350 -4.494026 -1.694641 -8.803682 17.659757 -8.540115 25.439184 -9.360407 -6.027267 3.485615 4.397844 1.929663 -7.426842 2.010433 -2.888357 36.805492 1.581670 -1.500080 -18.421460 -22.893727 0.251235 2.178136 -44.148370 12.189327 -18.353392 37.971938 -82.765022 -37.090773 -3.063475 2.569604 0.981990 -0.070200 -0.019600 0.218620 13.969066 -3.282074 4.834305 49.675419 -6.914662 -12.273571 96.210041 66.899667 53.528236 2.270479 -1.332890 -0.260460 0.153170 -0.175190 -0.526210 
-0.857630 17.070150 -4.744510 -4.423021 28.321031 -9.331802 -15.248731 12.331156 2.094764 0.677530 2.104217 12.803152 4.348796 5.000490 19.281538 -0.196015 5.621480 2.878328 0.811690 0.167080 0.727940 18.623868 -8.253887 6.003185 -14.057510 13.093967 -53.904340 26.242634 -28.228848 63.128150 -2.613198 -12.933401 0.496754 0.070170 -0.061710 0.190110 -4.412018 -2.028388 -9.011587 19.454316 -9.228395 29.303335 -7.637531 -6.096628 4.202336 3.950180 2.524566 -7.846352 3.053428 -4.100042 35.880290 1.877180 -1.887850 -21.808600 -21.367104 -1.720635 2.627850 -39.963284 12.132205 -16.052522 83.287710 -82.946997 -74.444410 -2.979089 -0.785406 1.000930 -0.109960 0.034180 0.219390 13.304358 -1.369034 4.787020 45.134496 -5.371607 -14.165696 111.441947 69.836257 72.176691 2.387409 -0.559103 -0.220780 0.130790 -0.220040 -0.533070 
-0.936280 16.953550 -4.836660 -5.924425 29.869047 -12.308037 -15.343597 12.323269 1.831056 2.525825 1.957796 13.529386 5.354390 5.076165 21.581373 -0.187970 5.902966 2.765134 0.838560 0.203250 0.731320 18.591652 -7.762669 6.507739 -19.169273 13.035104 -57.717379 32.247030 -34.153316 65.527661 -3.055399 -14.322863 0.174196 0.098190 -0.077010 0.201800 -4.207150 -2.464828 -9.183017 19.480608 -8.741808 33.546007 -5.520228 -5.323676 6.347294 3.739677 2.885392 -9.053715 3.452254 -5.738407 34.839462 3.570890 -3.166450 -25.053710 -20.172310 -3.802629 4.853373 -33.588216 11.136033 -8.459441 112.170282 -72.920641 -106.182337 -3.703826 1.852798 1.040010 -0.135010 0.060690 0.219510 12.776834 1.347129 4.813928 39.798104 -6.074871 -16.982870 131.381634 70.630079 100.305218 1.766841 -0.783006 -0.223100 0.142590 -0.216270 -0.536270 
-1.026800 16.855350 -4.902700 -6.870190 30.277922 -15.486772 -15.440489 12.413535 1.647379 4.951400 2.050324 14.981166 5.582375 5.513891 23.033038 -0.073929 6.218882 2.665532 0.818930 0.198630 0.731320 18.533657 -7.324064 6.874446 -23.133468 13.457285 -59.843341 37.401262 -39.129046 67.124810 -3.381039 -15.234876 -0.001613 0.074640 -0.094470 0.189550 -3.924825 -3.039831 -9.305690 18.939355 -7.893011 38.847299 -3.690376 -4.399320 7.280176 3.149937 2.968133 -10.058457 3.302061 -7.144028 34.067252 5.524960 -4.179710 -27.644770 -18.951815 -6.862062 5.651131 -26.343102 13.621592 -9.766452 126.152262 -69.867118 -121.048425 -3.480164 2.923856 1.045240 -0.168060 0.083560 0.203080 12.638858 4.845304 5.927624 33.243224 -8.202137 -16.646879 153.241520 70.481045 128.687679 1.539647 -1.399528 -0.210880 0.145650 -0.222230 -0.523670 
-1.098490 16.786810 -4.941100 -7.345415 29.152440 -17.855841 -15.561356 12.639692 1.581889 7.103579 2.447176 16.308650 5.105003 6.249780 24.146938 0.010273 6.612181 2.544206 0.766620 0.141120 0.711150 18.422539 -6.955237 7.044767 -25.006161 15.029158 -60.344364 40.152075 -41.864483 68.407009 -3.566283 -15.772172 -0.085732 0.036330 -0.074090 0.201640 -3.466027 -3.833516 -9.353703 17.280119 -5.948789 43.942826 -1.424524 -2.805544 7.296048 2.925750 3.745468 -10.683027 4.652903 -8.182283 32.601173 6.040000 -4.082280 -29.227350 -17.835692 -8.718455 6.056160 -19.357047 16.855881 -9.936019 135.772726 -66.434268 -129.958262 -3.427578 3.162932 1.056180 -0.151930 0.078300 0.179970 11.782965 7.082471 6.565051 25.920557 -9.842310 -15.632680 171.813403 70.794404 154.422802 1.502154 -1.692184 -0.226410 0.146370 -0.191950 -0.532350 
-1.157080 16.755390 -4.962120 -8.321398 29.474253 -19.698475 -15.662240 12.933790 1.460670 9.451211 2.282294 16.062257 5.166835 6.694409 25.835398 0.068381 6.896495 2.454227 0.696160 0.044430 0.697560 18.315601 -6.670229 7.179500 -26.709099 15.081654 -60.667390 44.299491 -43.732382 66.463350 -3.596802 -15.723508 -0.056493 -0.033200 -0.073740 0.208340 -3.100873 -4.655863 -9.390983 16.440637 -4.910700 47.040423 0.683517 -1.853218 6.757732 2.561276 4.411750 -11.365432 5.510560 -9.102854 32.859611 6.496790 -4.422610 -29.603990 -17.509719 -11.296832 6.940440 -11.209389 20.915846 -8.832435 137.270004 -68.805179 -133.116244 -3.423448 3.222639 1.074090 -0.153810 0.075740 0.143650 12.020198 9.634214 7.028265 17.406850 -13.234078 -14.742327 177.651977 71.563969 163.771391 1.551570 -1.745093 -0.237990 0.129720 -0.159170 -0.547260 
-1.219800 16.762420 -4.983410 -8.706544 30.621010 -19.807813 -15.752612 13.233696 1.338412 10.100606 1.843395 13.521943 6.256581 6.501269 28.329694 0.051687 6.957423 2.417751 0.629950 -0.050830 0.693940 18.207093 -6.546361 7.239183 -27.212490 14.526626 -60.643503 44.784395 -43.769646 65.815712 -3.564302 -15.599743 -0.034881 -0.104290 -0.090320 0.216130 -2.785567 -5.318261 -9.391238 14.744731 -3.607308 48.200970 3.012594 -0.896210 5.591208 2.151190 5.464165 -11.936888 6.990132 -10.000711 34.043204 6.944330 -4.337770 -30.108690 -16.486691 -13.384679 7.403918 -4.861928 22.577465 -7.581306 146.956831 -73.435993 -147.403680 -3.357263 3.389586 1.111570 -0.165750 0.085020 0.101330 11.753904 11.204549 7.233914 11.315216 -16.217459 -13.808453 168.487095 72.062773 153.112624 1.603097 -1.624002 -0.251540 0.103850 -0.127830 -0.573430 
-1.254240 16.803470 -4.989900 -9.269129 31.374898 -19.177703 -15.782131 13.433108 1.272727 10.052133 1.392549 10.938612 7.625402 5.967746 29.873305 -0.021657 6.882414 2.432977 0.573070 -0.132480 0.696510 18.141364 -6.647316 7.171544 -26.245784 14.379752 -59.670210 43.297501 -42.038152 64.973342 -3.469286 -15.273243 0.034978 -0.157970 -0.100920 0.209520 -2.672319 -5.502957 -9.349052 14.288006 -2.966723 47.703276 4.203603 -0.063547 4.623415 2.006278 6.573792 -12.547289 8.800979 -10.819278 35.704656 6.956580 -3.746250 -31.427990 -14.799050 -14.826492 7.697463 -2.325707 23.111428 -7.240186 175.506999 -75.688112 176.593300 -3.249099 3.387407 1.181300 -0.180830 0.105160 0.072000 10.299912 11.895420 7.336042 8.776796 -17.642684 -13.384726 149.008577 71.696423 128.245771 1.670217 -1.249136 -0.292320 0.116520 -0.100240 -0.610810 
-1.299530 16.893650 -4.980210 -8.379163 31.571062 -18.373559 -15.815589 13.658862 1.362893 9.332899 1.450011 9.590647 8.315748 5.636703 30.167776 0.052152 6.653509 2.477321 0.603300 -0.075240 0.738270 18.047434 -6.854987 6.929079 -24.094731 15.024130 -56.598211 39.977218 -38.426061 64.237399 -3.320262 -14.692742 0.144934 -0.189540 -0.193540 0.219030 -2.507201 -5.663556 -9.275321 12.503743 -1.611988 47.716683 5.267822 0.974836 3.923683 1.790576 7.218796 -13.437137 9.774489 -11.496151 38.609150 8.251120 -3.409670 -32.396440 -13.970280 -15.870337 8.366133 -2.469908 23.320001 -7.338151 -159.524010 -74.238132 143.781410 -3.126995 3.338430 1.181490 -0.239940 0.180750 0.063120 9.860235 12.836091 7.818041 6.884492 -17.744706 -12.242191 129.007800 68.932746 98.488977 1.996661 -0.866426 -0.211150 0.044870 -0.160460 -0.597550 
